<svg width="50" height="50" viewBox="0 0 50 50" fill="none" xmlns="http://www.w3.org/2000/svg">
  <path d="M45 15H39V10C39 8.9 38.1 8 37 8H13C11.9 8 11 8.9 11 10V15H5C3.9 15 3 15.9 3 17V40C3 41.1 3.9 42 5 42H45C46.1 42 47 41.1 47 40V17C47 15.9 46.1 15 45 15ZM13 10H37V15H13V10ZM5 40V17H45V40H5Z" fill="#E95211"/>
  <path d="M25 20C22.2 20 20 22.2 20 25C20 27.8 22.2 30 25 30C27.8 30 30 27.8 30 25C30 22.2 27.8 20 25 20ZM25 28C23.3 28 22 26.7 22 25C22 23.3 23.3 22 25 22C26.7 22 28 23.3 28 25C28 26.7 26.7 28 25 28Z" fill="#E95211"/>
  <path d="M15 35H35V37H15V35Z" fill="#E95211"/>
</svg>
